<svg width="109" height="110" viewBox="0 0 109 110" fill="none" xmlns="http://www.w3.org/2000/svg">
<rect width="108.78" height="109.295" rx="10.36" fill="#49DE80" fill-opacity="0.06"/>
<rect x="0.6475" y="0.6475" width="107.485" height="108" rx="9.7125" stroke="#49DE80" stroke-opacity="0.2" stroke-width="1.295"/>
<path d="M44.378 76.8142H65.5134ZM54.948 13.0117V17.569ZM83.7315 25.0248L80.5338 28.2468ZM95.6537 54.0276H91.1309ZM18.7651 54.0276H14.2422ZM29.3621 28.2468L26.1645 25.0248ZM38.9551 70.1423C35.793 66.9553 33.6398 62.8951 32.7677 58.4751C31.8956 54.0551 32.3438 49.4738 34.0556 45.3104C35.7674 41.1471 38.666 37.5886 42.3847 35.0851C46.1035 32.5815 50.4755 31.2453 54.948 31.2453C59.4204 31.2453 63.7924 32.5815 67.5112 35.0851C71.2299 37.5886 74.1285 41.1471 75.8403 45.3104C77.5521 49.4738 78.0003 54.0551 77.1282 58.4751C76.2561 62.8951 74.1029 66.9553 70.9408 70.1423L68.4623 72.6352C67.0453 74.0632 65.9214 75.7585 65.1546 77.6242C64.3879 79.49 63.9934 81.4896 63.9937 83.5089V85.9289C63.9937 88.3462 63.0406 90.6646 61.3442 92.3739C59.6478 94.0832 57.347 95.0435 54.948 95.0435C52.5489 95.0435 50.2481 94.0832 48.5517 92.3739C46.8553 90.6646 45.9022 88.3462 45.9022 85.9289V83.5089C45.9022 79.4301 44.2921 75.5154 41.4336 72.6352L38.9551 70.1423Z" fill="#49DE80" fill-opacity="0.06"/>
<path d="M44.378 76.8142H65.5134M54.948 13.0117V17.569M83.7315 25.0248L80.5338 28.2468M95.6537 54.0276H91.1309M18.7651 54.0276H14.2422M29.3621 28.2468L26.1645 25.0248M38.9551 70.1423C35.793 66.9553 33.6398 62.8951 32.7677 58.4751C31.8956 54.0551 32.3438 49.4738 34.0556 45.3104C35.7674 41.1471 38.666 37.5886 42.3847 35.0851C46.1035 32.5815 50.4755 31.2453 54.948 31.2453C59.4204 31.2453 63.7924 32.5815 67.5112 35.0851C71.2299 37.5886 74.1285 41.1471 75.8403 45.3104C77.5521 49.4738 78.0003 54.0551 77.1282 58.4751C76.2561 62.8951 74.1029 66.9553 70.9408 70.1423L68.4623 72.6352C67.0453 74.0632 65.9214 75.7585 65.1546 77.6242C64.3879 79.49 63.9934 81.4896 63.9937 83.5089V85.9289C63.9937 88.3462 63.0406 90.6646 61.3442 92.3739C59.6478 94.0832 57.347 95.0435 54.948 95.0435C52.5489 95.0435 50.2481 94.0832 48.5517 92.3739C46.8553 90.6646 45.9022 88.3462 45.9022 85.9289V83.5089C45.9022 79.4301 44.2921 75.5154 41.4336 72.6352L38.9551 70.1423Z" stroke="#2ED56D" stroke-width="6.23843" stroke-linecap="round" stroke-linejoin="round"/>
</svg>
