<svg width="109" height="110" viewBox="0 0 109 110" fill="none" xmlns="http://www.w3.org/2000/svg">
<rect width="108.78" height="109.295" rx="10.36" fill="#F7B809" fill-opacity="0.06"/>
<rect x="0.6475" y="0.6475" width="107.485" height="108" rx="9.7125" stroke="#F7B809" stroke-opacity="0.2" stroke-width="1.295"/>
<path d="M77.1004 91.132H99.7797V82.0174C99.7795 79.176 98.8982 76.4053 97.2584 74.0905C95.6185 71.7756 93.3016 70.0316 90.6297 69.1008C87.9578 68.17 85.0636 68.0988 82.3496 68.8969C79.6355 69.6951 77.2363 71.323 75.4856 73.5544M77.1004 91.132H31.7418ZM77.1004 91.132V82.0174C77.1004 79.0278 76.5289 76.1703 75.4856 73.5544M31.7418 91.132H9.0625V82.0174C9.06271 79.176 9.94398 76.4053 11.5838 74.0905C13.2236 71.7756 15.5406 70.0316 18.2125 69.1008C20.8844 68.17 23.7785 68.0988 26.4926 68.8969C29.2067 69.6951 31.6059 71.323 33.3566 73.5544M31.7418 91.132V82.0174C31.7418 79.0278 32.3133 76.1703 33.3566 73.5544M33.3566 73.5544C35.041 69.325 37.948 65.6997 41.7026 63.1461C45.4572 60.5924 49.8871 59.2275 54.4211 59.2275C58.9551 59.2275 63.385 60.5924 67.1396 63.1461C70.8942 65.6997 73.8012 69.325 75.4856 73.5544M68.0287 31.8868C68.0287 35.5128 66.595 38.9904 64.0431 41.5544C61.4912 44.1183 58.0301 45.5588 54.4211 45.5588C50.8121 45.5588 47.351 44.1183 44.7991 41.5544C42.2472 38.9904 40.8135 35.5128 40.8135 31.8868C40.8135 28.2608 42.2472 24.7833 44.7991 22.2193C47.351 19.6553 50.8121 18.2148 54.4211 18.2148C58.0301 18.2148 61.4912 19.6553 64.0431 22.2193C66.595 24.7833 68.0287 28.2608 68.0287 31.8868ZM95.2438 45.5588C95.2438 47.9761 94.2881 50.2945 92.5868 52.0038C90.8855 53.7131 88.5781 54.6734 86.1721 54.6734C83.7661 54.6734 81.4587 53.7131 79.7574 52.0038C78.0562 50.2945 77.1004 47.9761 77.1004 45.5588C77.1004 43.1414 78.0562 40.8231 79.7574 39.1138C81.4587 37.4044 83.7661 36.4441 86.1721 36.4441C88.5781 36.4441 90.8855 37.4044 92.5868 39.1138C94.2881 40.8231 95.2438 43.1414 95.2438 45.5588ZM31.7418 45.5588C31.7418 47.9761 30.786 50.2945 29.0848 52.0038C27.3835 53.7131 25.076 54.6734 22.6701 54.6734C20.2641 54.6734 17.9567 53.7131 16.2554 52.0038C14.5541 50.2945 13.5984 47.9761 13.5984 45.5588C13.5984 43.1414 14.5541 40.8231 16.2554 39.1138C17.9567 37.4044 20.2641 36.4441 22.6701 36.4441C25.076 36.4441 27.3835 37.4044 29.0848 39.1138C30.786 40.8231 31.7418 43.1414 31.7418 45.5588Z" fill="#F7B809" fill-opacity="0.06"/>
<path d="M77.1004 91.132H99.7797V82.0174C99.7795 79.176 98.8982 76.4053 97.2584 74.0905C95.6185 71.7756 93.3016 70.0316 90.6297 69.1008C87.9578 68.17 85.0636 68.0988 82.3496 68.8969C79.6355 69.6951 77.2363 71.323 75.4856 73.5544M77.1004 91.132H31.7418M77.1004 91.132V82.0174C77.1004 79.0278 76.5289 76.1703 75.4856 73.5544M75.4856 73.5544C73.8012 69.325 70.8942 65.6997 67.1396 63.1461C63.385 60.5924 58.9551 59.2275 54.4211 59.2275C49.8871 59.2275 45.4572 60.5924 41.7026 63.1461C37.948 65.6997 35.041 69.325 33.3566 73.5544M31.7418 91.132H9.0625V82.0174C9.06271 79.176 9.94398 76.4053 11.5838 74.0905C13.2236 71.7756 15.5406 70.0316 18.2125 69.1008C20.8844 68.17 23.7785 68.0988 26.4926 68.8969C29.2067 69.6951 31.6059 71.323 33.3566 73.5544M31.7418 91.132V82.0174C31.7418 79.0278 32.3133 76.1703 33.3566 73.5544M68.0287 31.8868C68.0287 35.5128 66.595 38.9904 64.0431 41.5544C61.4912 44.1183 58.0301 45.5588 54.4211 45.5588C50.8121 45.5588 47.351 44.1183 44.7991 41.5544C42.2472 38.9904 40.8135 35.5128 40.8135 31.8868C40.8135 28.2608 42.2472 24.7833 44.7991 22.2193C47.351 19.6553 50.8121 18.2148 54.4211 18.2148C58.0301 18.2148 61.4912 19.6553 64.0431 22.2193C66.595 24.7833 68.0287 28.2608 68.0287 31.8868ZM95.2438 45.5588C95.2438 47.9761 94.2881 50.2945 92.5868 52.0038C90.8855 53.7131 88.5781 54.6734 86.1721 54.6734C83.7661 54.6734 81.4587 53.7131 79.7574 52.0038C78.0562 50.2945 77.1004 47.9761 77.1004 45.5588C77.1004 43.1414 78.0562 40.8231 79.7574 39.1138C81.4587 37.4044 83.7661 36.4441 86.1721 36.4441C88.5781 36.4441 90.8855 37.4044 92.5868 39.1138C94.2881 40.8231 95.2438 43.1414 95.2438 45.5588ZM31.7418 45.5588C31.7418 47.9761 30.786 50.2945 29.0848 52.0038C27.3835 53.7131 25.076 54.6734 22.6701 54.6734C20.2641 54.6734 17.9567 53.7131 16.2554 52.0038C14.5541 50.2945 13.5984 47.9761 13.5984 45.5588C13.5984 43.1414 14.5541 40.8231 16.2554 39.1138C17.9567 37.4044 20.2641 36.4441 22.6701 36.4441C25.076 36.4441 27.3835 37.4044 29.0848 39.1138C30.786 40.8231 31.7418 43.1414 31.7418 45.5588Z" stroke="#F7B809" stroke-width="6.23843" stroke-linecap="round" stroke-linejoin="round"/>
</svg>
