<svg width="60" height="43" viewBox="0 0 60 43" fill="none" xmlns="http://www.w3.org/2000/svg">
<path fill-rule="evenodd" clip-rule="evenodd" d="M12.629 6.33789C11.0599 6.33789 7.92188 7.28027 7.92188 11.0498L7.92188 31.7298C7.92188 35.4993 11.0599 36.4417 12.629 36.4417H30.1498C31.7188 36.4417 34.8568 35.4993 34.8568 31.7298V16.9306C34.8568 16.7154 34.8568 16.547 34.5953 16.2852L25.7042 7.38498C25.7042 7.38498 24.6582 6.33789 24.1352 6.33789L12.629 6.33789ZM31.2299 16.5811L24.8882 10.233C24.2246 9.56868 23.0891 10.0387 23.0891 10.9776V17.3258C23.0891 17.9077 23.5609 18.3794 24.1428 18.3794L30.4845 18.3794C31.4229 18.3794 31.8931 17.245 31.2299 16.5811Z" fill="#3C82F6"/>
<path fill-rule="evenodd" clip-rule="evenodd" d="M57.4727 21.5957C57.4727 25.0702 54.6561 27.8868 51.1817 27.8868C47.7072 27.8868 44.8906 25.0702 44.8906 21.5957C44.8906 18.1213 47.7072 15.3047 51.1817 15.3047C54.6561 15.3047 57.4727 18.1213 57.4727 21.5957ZM51.1817 25.1607C50.6784 25.1607 50.5526 24.7412 50.5526 24.5315V22.2248H48.2458C48.0361 22.2248 47.6167 22.099 47.6167 21.5957C47.6167 21.0924 48.0361 20.9666 48.2458 20.9666H50.5526V18.6599C50.5526 18.4502 50.6784 18.0308 51.1817 18.0308C51.6849 18.0308 51.8108 18.4502 51.8108 18.6599V20.9666H54.1175C54.3272 20.9666 54.7466 21.0924 54.7466 21.5957C54.7466 22.099 54.3272 22.2248 54.1175 22.2248H51.8108V24.5315C51.8108 24.7412 51.6849 25.1607 51.1817 25.1607Z" fill="#3C82F6"/>
</svg>
