<svg width="1181" height="38" viewBox="0 0 1181 38" fill="none" xmlns="http://www.w3.org/2000/svg">
<path d="M0 11.3979C0 7.40829 0 5.41346 0.776439 3.88962C1.45941 2.5492 2.5492 1.45941 3.88962 0.776439C5.41346 0 7.40829 0 11.3979 0H1168.89C1172.88 0 1174.88 0 1176.4 0.776439C1177.74 1.45941 1178.83 2.5492 1179.51 3.88962C1180.29 5.41346 1180.29 7.40829 1180.29 11.3979V37.0433H0V11.3979Z" fill="#363636"/>
<g clip-path="url(#clip0_581_5866)">
<path d="M1109.07 19.5002C1109.37 19.5002 1109.62 19.252 1109.62 18.9566V13.0133L1109.58 12.1389L1109.94 12.5702L1110.76 13.4505C1110.86 13.5568 1110.99 13.61 1111.13 13.61C1111.4 13.61 1111.62 13.415 1111.62 13.1373C1111.62 12.9896 1111.56 12.8833 1111.46 12.7829L1109.49 10.8746C1109.34 10.7328 1109.21 10.6855 1109.07 10.6855C1108.92 10.6855 1108.79 10.7328 1108.65 10.8746L1106.66 12.7829C1106.56 12.8833 1106.51 12.9896 1106.51 13.1373C1106.51 13.415 1106.72 13.61 1107 13.61C1107.13 13.61 1107.27 13.5568 1107.37 13.4505L1108.19 12.5702L1108.56 12.133L1108.51 13.0133V18.9566C1108.51 19.252 1108.76 19.5002 1109.07 19.5002ZM1105.66 24.2206H1112.46C1113.74 24.2206 1114.4 23.5589 1114.4 22.2946V16.4871C1114.4 15.2228 1113.74 14.5611 1112.46 14.5611H1110.87V15.7368H1112.39C1112.92 15.7368 1113.23 16.0204 1113.23 16.5876V22.1883C1113.23 22.7554 1112.92 23.039 1112.39 23.039H1105.74C1105.19 23.039 1104.89 22.7554 1104.89 22.1883V16.5876C1104.89 16.0204 1105.19 15.7368 1105.74 15.7368H1107.27V14.5611H1105.66C1104.39 14.5611 1103.72 15.2169 1103.72 16.4871V22.2946C1103.72 23.5589 1104.39 24.2206 1105.66 24.2206Z" fill="#B7B7B7"/>
<path d="M1133.99 22.7974C1134.37 22.7974 1134.67 22.4927 1134.67 22.147V18.4788H1138.31C1138.67 18.4788 1138.98 18.18 1138.98 17.8108C1138.98 17.4475 1138.67 17.1428 1138.31 17.1428H1134.67V13.4746C1134.67 13.1231 1134.37 12.8242 1133.99 12.8242C1133.63 12.8242 1133.32 13.1231 1133.32 13.4746V17.1428H1129.68C1129.33 17.1428 1129.01 17.4475 1129.01 17.8108C1129.01 18.18 1129.33 18.4788 1129.68 18.4788H1133.32V22.147C1133.32 22.4927 1133.63 22.7974 1133.99 22.7974Z" fill="#B7B7B7"/>
<path d="M1155.87 21.3989H1156.88V22.2907C1156.88 23.5547 1157.54 24.2162 1158.82 24.2162H1164.81C1166.08 24.2162 1166.75 23.5547 1166.75 22.2907V16.2603C1166.75 14.9964 1166.08 14.3349 1164.81 14.3349H1163.81V13.4489C1163.81 12.1849 1163.14 11.5234 1161.86 11.5234H1155.87C1154.59 11.5234 1153.93 12.1849 1153.93 13.4489V19.4734C1153.93 20.7433 1154.59 21.3989 1155.87 21.3989ZM1155.95 20.2235C1155.41 20.2235 1155.11 19.94 1155.11 19.3671V13.5552C1155.11 12.9823 1155.41 12.7047 1155.95 12.7047H1161.79C1162.32 12.7047 1162.63 12.9823 1162.63 13.5552V14.3349H1158.82C1157.54 14.3349 1156.88 14.9964 1156.88 16.2603V20.2235H1155.95ZM1158.9 23.0349C1158.35 23.0349 1158.06 22.7514 1158.06 22.1844V16.3666C1158.06 15.7996 1158.35 15.5161 1158.9 15.5161H1164.73C1165.28 15.5161 1165.58 15.7996 1165.58 16.3666V22.1844C1165.58 22.7514 1165.28 23.0349 1164.73 23.0349H1158.9Z" fill="#B7B7B7"/>
</g>
<g clip-path="url(#clip1_581_5866)">
<path d="M71.7658 23.8761H81.8833C83.1665 23.8761 83.8347 23.2138 83.8347 21.9483V14.7519C83.8347 13.4865 83.1665 12.8242 81.8833 12.8242H71.7658C70.4885 12.8242 69.8203 13.4806 69.8203 14.7519V21.9483C69.8203 23.2138 70.4885 23.8761 71.7658 23.8761ZM71.8426 22.6993C71.2986 22.6993 70.997 22.4155 70.997 21.8419V14.8584C70.997 14.2848 71.2986 14.001 71.8426 14.001H74.5391V22.6993H71.8426ZM81.8065 14.001C82.3505 14.001 82.652 14.2848 82.652 14.8584V21.8419C82.652 22.4155 82.3505 22.6993 81.8065 22.6993H75.6567V14.001H81.8065ZM73.3801 16.1652C73.593 16.1652 73.7704 15.9819 73.7704 15.7808C73.7704 15.5798 73.593 15.4024 73.3801 15.4024H72.1679C71.955 15.4024 71.7776 15.5798 71.7776 15.7808C71.7776 15.9819 71.955 16.1652 72.1679 16.1652H73.3801ZM73.3801 17.7559C73.593 17.7559 73.7704 17.5785 73.7704 17.3715C73.7704 17.1705 73.593 16.9931 73.3801 16.9931H72.1679C71.955 16.9931 71.7776 17.1705 71.7776 17.3715C71.7776 17.5785 71.955 17.7559 72.1679 17.7559H73.3801ZM73.3801 19.3406C73.593 19.3406 73.7704 19.1691 73.7704 18.9622C73.7704 18.7611 73.593 18.5896 73.3801 18.5896H72.1679C71.955 18.5896 71.7776 18.7611 71.7776 18.9622C71.7776 19.1691 71.955 19.3406 72.1679 19.3406H73.3801Z" fill="#B7B7B7"/>
<path d="M106.433 22.8654L102.103 18.6302C101.953 18.4799 101.875 18.3129 101.875 18.1182C101.875 17.9234 101.953 17.7453 102.109 17.6006L106.439 13.3709C106.561 13.2484 106.717 13.1816 106.895 13.1816C107.268 13.1816 107.557 13.471 107.557 13.8384C107.557 14.0165 107.485 14.189 107.357 14.317L103.461 18.1126L107.357 21.9193C107.485 22.0473 107.557 22.2143 107.557 22.3979C107.557 22.7653 107.268 23.0547 106.895 23.0547C106.717 23.0547 106.561 22.9879 106.433 22.8654Z" fill="#B7B7B7"/>
<path d="M127.826 23.0547C128.01 23.0547 128.16 22.9879 128.288 22.8654L132.618 18.6357C132.768 18.4799 132.846 18.3185 132.846 18.1182C132.846 17.9234 132.774 17.7508 132.618 17.6061L128.288 13.3709C128.16 13.2484 128.01 13.1816 127.826 13.1816C127.453 13.1816 127.164 13.471 127.164 13.8384C127.164 14.0165 127.242 14.189 127.364 14.317L131.266 18.1237L127.364 21.9193C127.236 22.0529 127.164 22.2143 127.164 22.3979C127.164 22.7653 127.453 23.0547 127.826 23.0547Z" fill="#5A5A5A"/>
</g>
<g clip-path="url(#clip2_581_5866)">
<circle cx="18.5242" cy="18.5223" r="4.27423" fill="#ED6A5E"/>
<circle cx="18.5242" cy="18.5223" r="3.91804" stroke="black" stroke-opacity="0.1" stroke-width="0.712372"/>
<circle cx="32.7742" cy="18.5223" r="4.27423" fill="#F4BD50"/>
<circle cx="32.7742" cy="18.5223" r="3.91804" stroke="black" stroke-opacity="0.1" stroke-width="0.712372"/>
<circle cx="47.0242" cy="18.5223" r="4.27423" fill="#61C454"/>
<circle cx="47.0242" cy="18.5223" r="3.91804" stroke="black" stroke-opacity="0.1" stroke-width="0.712372"/>
</g>
<path d="M360.758 15.3876C360.758 12.9938 360.758 11.7969 361.224 10.8826C361.633 10.0784 362.287 9.42448 363.092 9.01469C364.006 8.54883 365.203 8.54883 367.597 8.54883H811.7C814.094 8.54883 815.29 8.54883 816.205 9.01469C817.009 9.42448 817.663 10.0784 818.073 10.8826C818.539 11.7969 818.539 12.9938 818.539 15.3876V21.6565C818.539 24.0503 818.539 25.2472 818.073 26.1615C817.663 26.9657 817.009 27.6196 816.205 28.0294C815.29 28.4952 814.094 28.4952 811.7 28.4952H367.597C365.203 28.4952 364.006 28.4952 363.092 28.0294C362.287 27.6196 361.633 26.9657 361.224 26.1615C360.758 25.2472 360.758 24.0503 360.758 21.6565V15.3876Z" fill="#434343"/>
<path d="M527.979 22.8985H532.028C532.587 22.8985 532.863 22.623 532.863 22.0136V18.8873C532.863 18.3363 532.637 18.0566 532.17 18.0107V16.9797C532.17 15.3936 531.114 14.6297 530.003 14.6297C528.893 14.6297 527.837 15.3936 527.837 16.9797V18.0232C527.403 18.09 527.144 18.3655 527.144 18.8873V22.0136C527.144 22.623 527.42 22.8985 527.979 22.8985ZM528.639 16.9046C528.639 15.932 529.256 15.3978 530.003 15.3978C530.746 15.3978 531.368 15.932 531.368 16.9046V18.0024L528.639 18.0065V16.9046Z" fill="#E3E3E3"/>
<path d="M538.805 24.7197C538.75 24.7197 538.688 24.7164 538.62 24.7099C538.552 24.7067 538.489 24.7002 538.43 24.6904V23.9941C538.482 24.0038 538.539 24.0103 538.601 24.0136C538.662 24.0168 538.722 24.0184 538.781 24.0184C539.021 24.0184 539.218 23.9567 539.37 23.8334C539.526 23.71 539.651 23.4974 539.745 23.1954L539.843 22.8838L537.9 17.6293H538.805L540.422 22.4796L540.086 21.9488H540.485L540.149 22.4796L541.761 17.6293H542.652L540.602 23.2003C540.459 23.5931 540.308 23.8999 540.149 24.1207C539.99 24.3414 539.804 24.4957 539.589 24.5833C539.378 24.6742 539.117 24.7197 538.805 24.7197ZM545.735 22.9714C545.238 22.9714 544.808 22.8627 544.444 22.6452C544.084 22.4244 543.805 22.1111 543.607 21.7053C543.412 21.2995 543.315 20.8174 543.315 20.259V20.2493C543.315 19.6876 543.412 19.2039 543.607 18.7981C543.805 18.3923 544.084 18.0806 544.444 17.8631C544.808 17.6456 545.238 17.5368 545.735 17.5368C546.235 17.5368 546.665 17.6456 547.025 17.8631C547.386 18.0806 547.663 18.3923 547.858 18.7981C548.056 19.2039 548.155 19.6876 548.155 20.2493V20.259C548.155 20.8174 548.056 21.2995 547.858 21.7053C547.663 22.1111 547.386 22.4244 547.025 22.6452C546.665 22.8627 546.235 22.9714 545.735 22.9714ZM545.735 22.2215C546.066 22.2215 546.347 22.1436 546.577 21.9877C546.808 21.8319 546.983 21.6079 547.103 21.3157C547.227 21.0235 547.288 20.6713 547.288 20.259V20.2493C547.288 19.8337 547.227 19.4798 547.103 19.1877C546.983 18.8955 546.808 18.6731 546.577 18.5205C546.347 18.3647 546.066 18.2868 545.735 18.2868C545.404 18.2868 545.123 18.3647 544.892 18.5205C544.662 18.6731 544.485 18.8955 544.362 19.1877C544.242 19.4798 544.181 19.8337 544.181 20.2493V20.259C544.181 20.6713 544.242 21.0235 544.362 21.3157C544.485 21.6079 544.662 21.8319 544.892 21.9877C545.123 22.1436 545.404 22.2215 545.735 22.2215ZM551.228 22.9714C550.832 22.9714 550.499 22.8968 550.23 22.7474C549.96 22.5948 549.757 22.3741 549.621 22.0851C549.488 21.793 549.421 21.4407 549.421 21.0284V17.6293H550.269V20.8239C550.269 21.2946 550.36 21.6452 550.541 21.8757C550.726 22.1062 551.028 22.2215 551.447 22.2215C551.678 22.2215 551.88 22.1874 552.056 22.1192C552.234 22.0511 552.384 21.9537 552.504 21.827C552.624 21.6972 552.713 21.5414 552.772 21.3596C552.833 21.1745 552.864 20.9667 552.864 20.7362V17.6293H553.712V22.8789H552.864V22.0949H552.786C552.702 22.2799 552.587 22.439 552.441 22.5721C552.294 22.702 552.119 22.801 551.915 22.8692C551.713 22.9373 551.484 22.9714 551.228 22.9714ZM555.294 22.8789V17.6293H556.142V18.4085H556.219C556.32 18.1325 556.49 17.9183 556.731 17.7657C556.971 17.6131 557.268 17.5368 557.622 17.5368C557.703 17.5368 557.783 17.5417 557.861 17.5514C557.942 17.5579 558.003 17.5644 558.046 17.5709V18.3939C557.958 18.3777 557.872 18.3663 557.787 18.3598C557.706 18.3501 557.619 18.3452 557.525 18.3452C557.255 18.3452 557.016 18.3988 556.809 18.5059C556.601 18.613 556.437 18.7624 556.317 18.9539C556.2 19.1454 556.142 19.3695 556.142 19.6259V22.8789H555.294ZM557.963 24.1548V23.3659H563.782V24.1548H557.963ZM564.761 22.8789L563.29 17.6293H564.138L565.17 21.827H565.248L566.421 17.6293H567.225L568.399 21.827H568.477L569.509 17.6293H570.351L568.881 22.8789H568.029L566.855 18.8176H566.777L565.608 22.8789H564.761ZM573.419 22.9714C572.919 22.9714 572.489 22.8611 572.129 22.6403C571.772 22.4195 571.496 22.1079 571.301 21.7053C571.109 21.2995 571.014 20.8223 571.014 20.2736V20.2687C571.014 19.7266 571.109 19.251 571.301 18.8419C571.496 18.4328 571.77 18.1131 572.124 17.8826C572.478 17.6521 572.892 17.5368 573.366 17.5368C573.843 17.5368 574.252 17.6472 574.593 17.868C574.937 18.0887 575.2 18.3971 575.382 18.7932C575.567 19.186 575.659 19.6438 575.659 20.1665V20.4976H571.452V19.8207H575.226L574.807 20.4392V20.1032C574.807 19.6909 574.745 19.3516 574.622 19.0854C574.499 18.8192 574.328 18.6211 574.111 18.4913C573.893 18.3582 573.643 18.2916 573.361 18.2916C573.078 18.2916 572.825 18.3614 572.601 18.501C572.38 18.6374 572.205 18.8403 572.075 19.1097C571.945 19.3792 571.88 19.7103 571.88 20.1032V20.4392C571.88 20.8125 571.944 21.1323 572.07 21.3985C572.197 21.6615 572.377 21.8644 572.611 22.0072C572.845 22.1468 573.121 22.2166 573.439 22.2166C573.676 22.2166 573.882 22.1842 574.057 22.1192C574.233 22.0543 574.377 21.9715 574.491 21.8709C574.604 21.7702 574.684 21.668 574.729 21.5641L574.749 21.5203H575.596L575.586 21.5592C575.541 21.7378 575.46 21.9115 575.343 22.0803C575.229 22.2458 575.081 22.3968 574.9 22.5332C574.718 22.6663 574.502 22.7734 574.252 22.8546C574.005 22.9325 573.728 22.9714 573.419 22.9714ZM579.584 22.9714C579.341 22.9714 579.115 22.9341 578.907 22.8594C578.7 22.7848 578.515 22.6792 578.352 22.5429C578.19 22.4033 578.055 22.2361 577.948 22.0413H577.87V22.8789H577.023V15.5451H577.87V18.4572H577.948C578.046 18.2689 578.175 18.1066 578.338 17.9702C578.503 17.8339 578.692 17.7284 578.903 17.6537C579.117 17.5758 579.344 17.5368 579.584 17.5368C580.029 17.5368 580.415 17.6488 580.743 17.8728C581.075 18.0968 581.331 18.4117 581.513 18.8176C581.695 19.2234 581.785 19.7006 581.785 20.2493V20.259C581.785 20.8044 581.695 21.2816 581.513 21.6907C581.331 22.0965 581.075 22.4114 580.743 22.6354C580.415 22.8594 580.029 22.9714 579.584 22.9714ZM579.39 22.2215C579.711 22.2215 579.985 22.1436 580.213 21.9877C580.44 21.8287 580.614 21.603 580.734 21.3109C580.857 21.0154 580.919 20.6648 580.919 20.259V20.2493C580.919 19.8402 580.857 19.4896 580.734 19.1974C580.614 18.9052 580.44 18.6812 580.213 18.5254C579.985 18.3663 579.711 18.2868 579.39 18.2868C579.071 18.2868 578.797 18.3663 578.567 18.5254C578.336 18.6844 578.159 18.9101 578.036 19.2023C577.912 19.4944 577.851 19.8434 577.851 20.2493V20.259C577.851 20.6616 577.912 21.0106 578.036 21.306C578.159 21.5982 578.336 21.8238 578.567 21.9829C578.797 22.142 579.071 22.2215 579.39 22.2215ZM584.902 22.9714C584.513 22.9714 584.168 22.913 583.87 22.7961C583.571 22.676 583.331 22.5088 583.149 22.2945C582.97 22.0803 582.865 21.8287 582.832 21.5397H583.699C583.771 21.7572 583.91 21.9326 584.118 22.0657C584.326 22.1988 584.597 22.2653 584.931 22.2653C585.168 22.2653 585.376 22.2312 585.555 22.1631C585.736 22.0916 585.879 21.9959 585.983 21.8757C586.087 21.7524 586.139 21.6112 586.139 21.4521V21.4423C586.139 21.2638 586.068 21.1128 585.925 20.9895C585.782 20.8628 585.548 20.7606 585.224 20.6827L584.41 20.4879C584.082 20.41 583.813 20.3093 583.602 20.1859C583.391 20.0593 583.235 19.9051 583.134 19.7233C583.034 19.5383 582.983 19.3208 582.983 19.0708V19.0659C582.983 18.7737 583.068 18.5124 583.237 18.2819C583.409 18.0514 583.642 17.8696 583.938 17.7365C584.233 17.6034 584.566 17.5368 584.936 17.5368C585.303 17.5368 585.628 17.5953 585.91 17.7121C586.196 17.8258 586.425 17.9881 586.597 18.1991C586.772 18.4101 586.879 18.6585 586.918 18.9442H586.085C586.03 18.7364 585.904 18.5676 585.706 18.4377C585.508 18.3079 585.249 18.2429 584.931 18.2429C584.724 18.2429 584.539 18.277 584.376 18.3452C584.214 18.4101 584.086 18.501 583.991 18.6179C583.897 18.7348 583.85 18.8711 583.85 19.027V19.0367C583.85 19.1536 583.881 19.2575 583.943 19.3484C584.004 19.4393 584.1 19.5188 584.23 19.587C584.36 19.6551 584.527 19.7152 584.732 19.7672L585.54 19.9619C586.034 20.0821 586.4 20.2541 586.641 20.4781C586.884 20.7021 587.006 21.0024 587.006 21.379V21.3888C587.006 21.7004 586.913 21.9764 586.728 22.2166C586.543 22.4536 586.292 22.6387 585.973 22.7718C585.659 22.9049 585.301 22.9714 584.902 22.9714ZM588.34 22.8789V17.6293H589.187V22.8789H588.34ZM588.769 16.6164C588.61 16.6164 588.472 16.5596 588.355 16.446C588.241 16.3291 588.184 16.1911 588.184 16.0321C588.184 15.8697 588.241 15.7318 588.355 15.6181C588.472 15.5045 588.61 15.4477 588.769 15.4477C588.931 15.4477 589.069 15.5045 589.183 15.6181C589.296 15.7318 589.353 15.8697 589.353 16.0321C589.353 16.1911 589.296 16.3291 589.183 16.446C589.069 16.5596 588.931 16.6164 588.769 16.6164ZM592.65 22.9179C592.111 22.9179 591.72 22.8091 591.476 22.5916C591.236 22.3741 591.116 22.0153 591.116 21.5154V18.3306H590.288V17.6293H591.116V16.2707H591.992V17.6293H593.142V18.3306H591.992V21.3011C591.992 21.6095 592.051 21.8319 592.168 21.9683C592.285 22.1014 592.479 22.1679 592.752 22.1679C592.827 22.1679 592.89 22.1663 592.942 22.1631C592.997 22.1598 593.064 22.1549 593.142 22.1484V22.8692C593.061 22.8822 592.979 22.8935 592.898 22.9033C592.817 22.913 592.734 22.9179 592.65 22.9179ZM596.482 22.9714C595.982 22.9714 595.552 22.8611 595.192 22.6403C594.835 22.4195 594.559 22.1079 594.364 21.7053C594.172 21.2995 594.077 20.8223 594.077 20.2736V20.2687C594.077 19.7266 594.172 19.251 594.364 18.8419C594.559 18.4328 594.833 18.1131 595.187 17.8826C595.541 17.6521 595.955 17.5368 596.429 17.5368C596.906 17.5368 597.315 17.6472 597.656 17.868C598 18.0887 598.263 18.3971 598.445 18.7932C598.63 19.186 598.722 19.6438 598.722 20.1665V20.4976H594.515V19.8207H598.289L597.87 20.4392V20.1032C597.87 19.6909 597.809 19.3516 597.685 19.0854C597.562 18.8192 597.391 18.6211 597.174 18.4913C596.956 18.3582 596.706 18.2916 596.424 18.2916C596.141 18.2916 595.888 18.3614 595.664 18.501C595.443 18.6374 595.268 18.8403 595.138 19.1097C595.008 19.3792 594.943 19.7103 594.943 20.1032V20.4392C594.943 20.8125 595.007 21.1323 595.133 21.3985C595.26 21.6615 595.44 21.8644 595.674 22.0072C595.908 22.1468 596.184 22.2166 596.502 22.2166C596.739 22.2166 596.945 22.1842 597.12 22.1192C597.296 22.0543 597.44 21.9715 597.554 21.8709C597.667 21.7702 597.747 21.668 597.792 21.5641L597.812 21.5203H598.659L598.649 21.5592C598.604 21.7378 598.523 21.9115 598.406 22.0803C598.292 22.2458 598.145 22.3968 597.963 22.5332C597.781 22.6663 597.565 22.7734 597.315 22.8546C597.068 22.9325 596.791 22.9714 596.482 22.9714ZM600.729 22.9276C600.557 22.9276 600.407 22.8659 600.281 22.7426C600.157 22.6159 600.096 22.4666 600.096 22.2945C600.096 22.1192 600.157 21.9699 600.281 21.8465C600.407 21.7232 600.557 21.6615 600.729 21.6615C600.904 21.6615 601.053 21.7232 601.177 21.8465C601.3 21.9699 601.362 22.1192 601.362 22.2945C601.362 22.4666 601.3 22.6159 601.177 22.7426C601.053 22.8659 600.904 22.9276 600.729 22.9276ZM604.951 22.9714C604.461 22.9714 604.035 22.8594 603.675 22.6354C603.315 22.4114 603.035 22.0949 602.837 21.6858C602.639 21.2768 602.54 20.7947 602.54 20.2395V20.2298C602.54 19.6844 602.638 19.2104 602.832 18.8078C603.03 18.4052 603.31 18.0936 603.67 17.8728C604.03 17.6488 604.456 17.5368 604.946 17.5368C605.371 17.5368 605.738 17.6115 606.046 17.7608C606.355 17.9102 606.602 18.1114 606.787 18.3647C606.972 18.6146 607.09 18.8955 607.142 19.2071L607.147 19.2364H606.305L606.3 19.2217C606.235 18.962 606.087 18.7413 605.857 18.5595C605.626 18.3777 605.323 18.2868 604.946 18.2868C604.631 18.2868 604.358 18.3663 604.128 18.5254C603.897 18.6844 603.719 18.9101 603.592 19.2023C603.469 19.4912 603.407 19.8337 603.407 20.2298V20.2395C603.407 20.6421 603.47 20.9927 603.597 21.2914C603.724 21.5868 603.902 21.8157 604.133 21.978C604.363 22.1403 604.634 22.2215 604.946 22.2215C605.3 22.2215 605.589 22.1452 605.813 21.9926C606.037 21.84 606.197 21.6176 606.295 21.3255L606.305 21.2962L607.142 21.2914L607.132 21.3449C607.061 21.6599 606.934 21.9407 606.753 22.1874C606.571 22.4309 606.331 22.6224 606.032 22.762C605.733 22.9016 605.373 22.9714 604.951 22.9714ZM610.541 22.9714C610.045 22.9714 609.614 22.8627 609.251 22.6452C608.89 22.4244 608.611 22.1111 608.413 21.7053C608.218 21.2995 608.121 20.8174 608.121 20.259V20.2493C608.121 19.6876 608.218 19.2039 608.413 18.7981C608.611 18.3923 608.89 18.0806 609.251 17.8631C609.614 17.6456 610.045 17.5368 610.541 17.5368C611.041 17.5368 611.471 17.6456 611.832 17.8631C612.192 18.0806 612.47 18.3923 612.664 18.7981C612.862 19.2039 612.961 19.6876 612.961 20.2493V20.259C612.961 20.8174 612.862 21.2995 612.664 21.7053C612.47 22.1111 612.192 22.4244 611.832 22.6452C611.471 22.8627 611.041 22.9714 610.541 22.9714ZM610.541 22.2215C610.872 22.2215 611.153 22.1436 611.384 21.9877C611.614 21.8319 611.789 21.6079 611.91 21.3157C612.033 21.0235 612.095 20.6713 612.095 20.259V20.2493C612.095 19.8337 612.033 19.4798 611.91 19.1877C611.789 18.8955 611.614 18.6731 611.384 18.5205C611.153 18.3647 610.872 18.2868 610.541 18.2868C610.21 18.2868 609.929 18.3647 609.699 18.5205C609.468 18.6731 609.291 18.8955 609.168 19.1877C609.048 19.4798 608.988 19.8337 608.988 20.2493V20.259C608.988 20.6713 609.048 21.0235 609.168 21.3157C609.291 21.6079 609.468 21.8319 609.699 21.9877C609.929 22.1436 610.21 22.2215 610.541 22.2215ZM614.276 22.8789V17.6293H615.124V18.428H615.202C615.318 18.1455 615.497 17.9264 615.737 17.7706C615.981 17.6147 616.275 17.5368 616.619 17.5368C616.856 17.5368 617.068 17.5758 617.257 17.6537C617.445 17.7316 617.607 17.8404 617.744 17.98C617.88 18.1163 617.989 18.2754 618.07 18.4572H618.148C618.242 18.2721 618.369 18.1114 618.528 17.9751C618.687 17.8355 618.87 17.7284 619.078 17.6537C619.289 17.5758 619.515 17.5368 619.755 17.5368C620.112 17.5368 620.414 17.6034 620.661 17.7365C620.91 17.8696 621.1 18.0644 621.23 18.3208C621.36 18.5741 621.425 18.8841 621.425 19.251V22.8789H620.578V19.4457C620.578 19.186 620.537 18.9718 620.456 18.8029C620.378 18.6309 620.258 18.5026 620.096 18.4182C619.933 18.3306 619.729 18.2868 619.482 18.2868C619.239 18.2868 619.026 18.3419 618.844 18.4523C618.662 18.5627 618.521 18.7104 618.42 18.8955C618.32 19.0773 618.269 19.2802 618.269 19.5042V22.8789H617.422V19.3143C617.422 19.1065 617.377 18.9263 617.286 18.7737C617.198 18.6179 617.072 18.4978 616.906 18.4134C616.744 18.329 616.552 18.2868 616.331 18.2868C616.104 18.2868 615.898 18.3468 615.713 18.4669C615.531 18.5871 615.387 18.7494 615.279 18.9539C615.176 19.1552 615.124 19.3792 615.124 19.6259V22.8789H614.276ZM625.199 15.5451L622.979 24.632H622.165L624.386 15.5451H625.199ZM627.434 22.9714C627.103 22.9714 626.804 22.9081 626.538 22.7815C626.275 22.6549 626.066 22.4747 625.91 22.241C625.757 22.0072 625.681 21.7313 625.681 21.4131V21.4034C625.681 21.0917 625.756 20.8255 625.905 20.6047C626.055 20.3807 626.272 20.2054 626.558 20.0788C626.843 19.9522 627.189 19.8775 627.595 19.8548L629.523 19.7379V20.4148L627.697 20.5317C627.298 20.5544 627.006 20.6372 626.821 20.7801C626.639 20.9229 626.548 21.1242 626.548 21.3839V21.3936C626.548 21.6599 626.649 21.8676 626.85 22.017C627.051 22.1631 627.304 22.2361 627.61 22.2361C627.899 22.2361 628.155 22.1793 628.379 22.0657C628.603 21.9488 628.778 21.7913 628.905 21.5933C629.035 21.3953 629.1 21.1713 629.1 20.9213V19.285C629.1 18.9604 629.001 18.7137 628.803 18.5448C628.608 18.3728 628.314 18.2868 627.921 18.2868C627.606 18.2868 627.348 18.3436 627.147 18.4572C626.946 18.5676 626.811 18.725 626.743 18.9296L626.738 18.9442H625.891L625.895 18.9149C625.941 18.639 626.055 18.3988 626.236 18.1942C626.421 17.9865 626.66 17.8258 626.952 17.7121C627.244 17.5953 627.577 17.5368 627.95 17.5368C628.379 17.5368 628.741 17.6066 629.036 17.7462C629.335 17.8858 629.561 18.0871 629.713 18.3501C629.869 18.6098 629.947 18.9214 629.947 19.285V22.8789H629.1V22.1046H629.022C628.911 22.2897 628.777 22.4471 628.618 22.577C628.462 22.7068 628.285 22.8059 628.087 22.874C627.889 22.939 627.671 22.9714 627.434 22.9714ZM631.515 22.8789V17.6293H632.362V22.8789H631.515ZM631.944 16.6164C631.785 16.6164 631.647 16.5596 631.53 16.446C631.416 16.3291 631.359 16.1911 631.359 16.0321C631.359 15.8697 631.416 15.7318 631.53 15.6181C631.647 15.5045 631.785 15.4477 631.944 15.4477C632.106 15.4477 632.244 15.5045 632.358 15.6181C632.471 15.7318 632.528 15.8697 632.528 16.0321C632.528 16.1911 632.471 16.3291 632.358 16.446C632.244 16.5596 632.106 16.6164 631.944 16.6164ZM633.171 24.1548V23.3659H638.99V24.1548H633.171ZM641.318 22.8789L639.375 17.6293H640.271L641.707 21.9537H641.785L643.222 17.6293H644.118L642.175 22.8789H641.318ZM645.258 22.8789V17.6293H646.105V22.8789H645.258ZM645.686 16.6164C645.527 16.6164 645.389 16.5596 645.272 16.446C645.158 16.3291 645.102 16.1911 645.102 16.0321C645.102 15.8697 645.158 15.7318 645.272 15.6181C645.389 15.5045 645.527 15.4477 645.686 15.4477C645.848 15.4477 645.986 15.5045 646.1 15.6181C646.214 15.7318 646.27 15.8697 646.27 16.0321C646.27 16.1911 646.214 16.3291 646.1 16.446C645.986 16.5596 645.848 16.6164 645.686 16.6164ZM649.144 22.9714C648.812 22.9714 648.514 22.9081 648.248 22.7815C647.985 22.6549 647.775 22.4747 647.619 22.241C647.467 22.0072 647.39 21.7313 647.39 21.4131V21.4034C647.39 21.0917 647.465 20.8255 647.614 20.6047C647.764 20.3807 647.981 20.2054 648.267 20.0788C648.553 19.9522 648.898 19.8775 649.304 19.8548L651.233 19.7379V20.4148L649.407 20.5317C649.007 20.5544 648.715 20.6372 648.53 20.7801C648.348 20.9229 648.257 21.1242 648.257 21.3839V21.3936C648.257 21.6599 648.358 21.8676 648.559 22.017C648.76 22.1631 649.014 22.2361 649.319 22.2361C649.608 22.2361 649.864 22.1793 650.088 22.0657C650.312 21.9488 650.488 21.7913 650.614 21.5933C650.744 21.3953 650.809 21.1713 650.809 20.9213V19.285C650.809 18.9604 650.71 18.7137 650.512 18.5448C650.317 18.3728 650.023 18.2868 649.631 18.2868C649.316 18.2868 649.058 18.3436 648.856 18.4572C648.655 18.5676 648.52 18.725 648.452 18.9296L648.447 18.9442H647.6L647.605 18.9149C647.65 18.639 647.764 18.3988 647.946 18.1942C648.131 17.9865 648.369 17.8258 648.661 17.7121C648.954 17.5953 649.286 17.5368 649.66 17.5368C650.088 17.5368 650.45 17.6066 650.746 17.7462C651.044 17.8858 651.27 18.0871 651.423 18.3501C651.578 18.6098 651.656 18.9214 651.656 19.285V22.8789H650.809V22.1046H650.731C650.621 22.2897 650.486 22.4471 650.327 22.577C650.171 22.7068 649.994 22.8059 649.796 22.874C649.598 22.939 649.381 22.9714 649.144 22.9714Z" fill="white"/>
<g clip-path="url(#clip3_581_5866)">
<path d="M809.876 17.6229C809.997 17.6229 810.093 17.5853 810.168 17.506L811.88 15.7821C811.972 15.6903 812.013 15.5901 812.013 15.4732C812.013 15.3605 811.967 15.252 811.88 15.1685L810.168 13.428C810.093 13.3445 809.997 13.3027 809.876 13.3027C809.651 13.3027 809.471 13.4906 809.471 13.7201C809.471 13.8328 809.513 13.9247 809.584 14.004L810.582 14.9807C810.385 14.9515 810.185 14.9348 809.985 14.9348C807.919 14.9348 806.266 16.5877 806.266 18.658C806.266 20.7284 807.931 22.3938 809.997 22.3938C812.068 22.3938 813.729 20.7284 813.729 18.658C813.729 18.4076 813.554 18.2281 813.303 18.2281C813.061 18.2281 812.898 18.4076 812.898 18.658C812.898 20.2692 811.608 21.5632 809.997 21.5632C808.39 21.5632 807.096 20.2692 807.096 18.658C807.096 17.0343 808.378 15.7487 809.985 15.7487C810.256 15.7487 810.506 15.7696 810.728 15.8072L809.588 16.9342C809.513 17.0093 809.471 17.1011 809.471 17.2138C809.471 17.4434 809.651 17.6229 809.876 17.6229Z" fill="#E3E3E3"/>
</g>
<path d="M344.385 24.2177C344.491 24.2177 344.65 24.182 344.798 24.0987C348.193 22.2361 349.372 21.3732 349.372 19.207V14.714C349.372 13.9998 349.095 13.744 348.505 13.4881C347.851 13.2084 345.652 12.4347 345.01 12.2145C344.815 12.1491 344.585 12.1074 344.385 12.1074C344.185 12.1074 343.955 12.161 343.76 12.2145C343.118 12.399 340.919 13.2143 340.265 13.4881C339.675 13.738 339.398 13.9998 339.398 14.714V19.207C339.398 21.3732 340.583 22.2241 343.967 24.0987C344.12 24.182 344.279 24.2177 344.385 24.2177ZM344.703 13.3095C345.475 13.619 347.155 14.22 348.04 14.5354C348.205 14.6009 348.246 14.6902 348.246 14.9044V18.9868C348.246 20.7304 347.379 21.2006 344.721 22.8193C344.556 22.9204 344.473 22.9561 344.391 22.9561V13.2441C344.473 13.2441 344.562 13.2619 344.703 13.3095Z" fill="#B7B7B7"/>
<defs>
<clipPath id="clip0_581_5866">
<rect width="68.3877" height="17.0969" fill="white" transform="translate(1100.51 9.26562)"/>
</clipPath>
<clipPath id="clip1_581_5866">
<rect width="69.8124" height="17.0969" fill="white" transform="translate(68.3906 9.26562)"/>
</clipPath>
<clipPath id="clip2_581_5866">
<rect width="37.0433" height="8.54846" fill="white" transform="translate(14.25 14.248)"/>
</clipPath>
<clipPath id="clip3_581_5866">
<rect width="9.26083" height="9.9732" fill="white" transform="translate(805.367 12.8242)"/>
</clipPath>
</defs>
</svg>
