<svg width="80" height="20" viewBox="0 0 80 20" fill="none" xmlns="http://www.w3.org/2000/svg">
<path d="M9.78418 15.8164H10L15.7031 0H19.9316L12.2441 19.9316H7.5293L0 0H4.22852L9.78418 15.8164ZM47.6113 19.9316H43.3838L37.6807 4.11523H37.4639L31.9082 19.9316H27.6807L35.21 0.000976562H39.9248L47.6113 19.9316ZM74.1865 19.9316H69.959L64.2559 4.11523H64.0391L58.4834 19.9316H54.2559L61.7852 0.000976562H66.5L74.1865 19.9316ZM25.4668 19.9307H22.1445V0H25.4668V19.9307ZM79.7217 19.9307H76.3994V0H79.7217V19.9307ZM50.9346 15.501C52.1573 15.5012 53.1483 16.4921 53.1484 17.7148C53.1484 18.9378 52.1574 19.9294 50.9346 19.9297C49.7115 19.9297 48.7197 18.9379 48.7197 17.7148C48.7199 16.4919 49.7116 15.501 50.9346 15.501ZM37.6465 12.1797C38.8695 12.1797 39.8613 13.1715 39.8613 14.3945C39.8613 15.6176 38.8695 16.6094 37.6465 16.6094C36.4235 16.6093 35.4316 15.6176 35.4316 14.3945C35.4317 13.1715 36.4235 12.1797 37.6465 12.1797ZM64.2217 12.1797C65.4447 12.1797 66.4365 13.1715 66.4365 14.3945C66.4365 15.6176 65.4447 16.6094 64.2217 16.6094C62.9986 16.6094 62.0068 15.6176 62.0068 14.3945C62.0069 13.1715 62.9986 12.1797 64.2217 12.1797Z" fill="white"/>
</svg>
