<svg width="109" height="110" viewBox="0 0 109 110" fill="none" xmlns="http://www.w3.org/2000/svg">
<rect width="108.78" height="109.295" rx="10.36" fill="#962D2D" fill-opacity="0.06"/>
<rect x="0.6475" y="0.6475" width="107.485" height="108" rx="9.7125" stroke="#D74040" stroke-opacity="0.2" stroke-width="1.295"/>
<path d="M29.6358 22.9888C35.65 18.1766 42.8943 15.1685 50.535 14.3105V59.6331H95.6441C94.7903 67.31 91.7963 74.5886 87.0068 80.6313C82.2173 86.6739 75.827 91.235 68.5713 93.7896C61.3156 96.3442 53.4895 96.7885 45.9936 95.0713C38.4977 93.3541 31.6367 89.5452 26.2002 84.0831C20.7638 78.6209 16.9729 71.7275 15.2638 64.1961C13.5547 56.6647 13.9968 48.8015 16.5394 41.5115C19.082 34.2215 23.6216 27.8009 29.6358 22.9888Z" fill="#962D2D" fill-opacity="0.06" stroke="#D74040" stroke-width="6.23843" stroke-linecap="round" stroke-linejoin="round"/>
<path d="M68.6797 41.4051H93.5725C91.5362 35.6384 88.245 30.4007 83.9386 26.074C79.6322 21.7473 74.4193 18.4404 68.6797 16.3945V41.4051Z" fill="#962D2D" fill-opacity="0.06" stroke="#D74040" stroke-width="6.23843" stroke-linecap="round" stroke-linejoin="round"/>
</svg>
